<svg width="243" height="67" viewBox="0 0 243 67" fill="none" xmlns="http://www.w3.org/2000/svg">
<rect width="243" height="66.2727" fill="#2C2926"/>
<g clip-path="url(#clip0_2002_91)">
<path d="M141.566 64.0942C106.377 64.0942 71.2358 64.0942 36.0945 64.0942C36.0945 42.7609 36.0945 21.4276 36.0945 0.0942383C91.9675 0.0942383 147.841 0.0942383 203.714 0.0942383C203.714 21.4276 203.714 42.7609 203.714 64.0942C183.013 64.0942 162.313 64.0942 141.566 64.0942ZM90.5675 27.6908C90.4816 27.4384 90.3957 27.1859 90.3012 26.8599C89.8937 25.988 89.566 25.067 89.0609 24.2552C88.1742 22.8299 87.1491 21.4985 85.7716 20.4833C85.1479 20.0236 84.5759 19.4763 83.9049 19.1031C83.0269 18.6149 82.0891 18.2215 81.149 17.8593C80.3733 17.5604 79.5696 17.301 78.7551 17.143C77.8566 16.9687 76.9316 16.9299 75.9699 16.7666C70.0143 16.7625 64.0586 16.7578 58.1029 16.7575C57.9549 16.7575 57.8068 16.8063 57.5724 16.8446C56.9946 16.8783 56.4048 16.85 55.8411 16.9574C54.0951 17.2899 52.3861 17.7312 50.7837 18.5538C49.3338 19.298 48.0198 20.2157 46.8681 21.3461C45.5077 22.6815 44.4218 24.2386 43.7207 26.006C43.255 27.1799 42.9895 28.4325 42.6102 29.7017C42.611 29.7795 42.6118 29.8574 42.6169 29.9697C42.6169 29.9697 42.6249 30.0035 42.5662 30.0579C42.5224 31.1763 42.4769 32.2945 42.4388 33.4131C42.4366 33.4781 42.4945 33.5452 42.5263 33.6965C42.6821 34.605 42.7586 35.5364 43.0148 36.4159C43.308 37.4226 43.6691 38.432 44.1632 39.3541C45.2823 41.4427 46.73 43.2974 48.7458 44.6073C49.8364 45.3161 50.9914 45.9595 52.1888 46.465C53.9209 47.1961 55.7532 47.5937 57.7109 47.6061C57.7733 47.6119 57.8358 47.6228 57.8983 47.6229C63.8 47.6237 69.7017 47.6243 75.6033 47.6205C75.7369 47.6204 75.8704 47.5705 76.0906 47.5331C77.1873 47.5674 78.2561 47.3884 79.3252 47.1612C80.7898 46.8499 82.1559 46.276 83.4625 45.5869C84.264 45.1642 85.0102 44.6044 85.6984 44.011C86.5164 43.3057 87.3412 42.5704 87.9902 41.7179C88.8981 40.5252 89.676 39.2339 90.2221 37.8153C90.6188 36.7847 90.9711 35.7532 91.1221 34.5957C91.1326 34.3633 91.1531 34.1308 91.152 33.8984C91.1464 32.725 91.1353 31.5516 91.1305 30.2972C91.1652 29.4061 90.8762 28.5834 90.5832 27.7596C90.5832 27.7596 90.5869 27.7636 90.5675 27.6908ZM154.403 27.7481C154.755 28.2679 155.102 28.7913 155.463 29.3044C155.536 29.4081 155.66 29.5351 155.769 29.544C156.137 29.5739 156.508 29.5554 156.858 29.5554C156.858 26.1356 156.858 22.7875 156.858 19.4313C156.422 19.4313 156.019 19.4313 155.569 19.4313C155.569 22.03 155.569 24.605 155.569 27.3103C155.394 27.0714 155.293 26.9428 155.202 26.8081C153.606 24.4573 152.014 22.1048 150.415 19.7568C150.324 19.6232 150.192 19.4413 150.061 19.4249C149.696 19.3793 149.322 19.4091 148.958 19.4091C148.958 22.827 148.958 26.1761 148.958 29.519C149.4 29.519 149.813 29.519 150.281 29.519C150.281 26.9138 150.281 24.3455 150.281 21.6714C151.686 23.745 153.024 25.7194 154.403 27.7481ZM164.375 40.4256C163.625 40.601 163.052 41.0414 162.565 41.6838C162.095 40.7237 161.333 40.3429 160.329 40.3524C159.344 40.3618 158.622 40.8569 157.985 41.6222C157.893 41.1948 157.819 40.8499 157.748 40.5181C157.445 40.5181 157.183 40.5181 156.91 40.5181C156.91 42.9498 156.91 45.3557 156.91 47.7659C157.336 47.7659 157.734 47.7659 158.167 47.7659C158.167 47.5787 158.167 47.424 158.167 47.2694C158.167 45.952 158.161 44.6345 158.169 43.3171C158.174 42.3169 159.035 41.4673 160.043 41.449C160.987 41.4318 161.52 42.0108 161.544 43.1612C161.573 44.5251 161.556 45.89 161.56 47.2544C161.56 47.4223 161.56 47.5903 161.56 47.768C162.017 47.768 162.416 47.768 162.845 47.768C162.845 47.5828 162.845 47.4282 162.845 47.2736C162.845 45.9247 162.842 44.5759 162.846 43.2271C162.849 42.2831 163.67 41.4978 164.692 41.4516C165.593 41.4108 166.096 41.9217 166.205 42.9987C166.227 43.2166 166.23 43.437 166.231 43.6563C166.233 44.8796 166.232 46.103 166.232 47.3263C166.232 47.4766 166.232 47.6269 166.232 47.7828C166.684 47.7828 167.075 47.7828 167.467 47.7828C167.467 46.0133 167.518 44.2578 167.446 42.5072C167.409 41.586 166.95 40.7867 165.987 40.5065C165.506 40.3665 164.964 40.4323 164.375 40.4256ZM112.289 38.7875C113.135 38.7875 113.98 38.7875 114.835 38.7875C114.835 38.3812 114.835 38.0305 114.835 37.6773C112.732 37.6773 110.661 37.6773 108.58 37.6773C108.58 41.0544 108.58 44.4018 108.58 47.7735C110.72 47.7735 112.837 47.7735 114.974 47.7735C114.974 47.3952 114.974 47.0419 114.974 46.6414C113.277 46.6414 111.599 46.6414 109.922 46.6414C109.922 45.4751 109.922 44.3564 109.922 43.1937C111.444 43.1937 112.931 43.1937 114.414 43.1937C114.414 42.7962 114.414 42.4445 114.414 42.0502C112.893 42.0502 111.404 42.0502 109.913 42.0502C109.913 40.9483 109.913 39.8899 109.913 38.7875C110.69 38.7875 111.443 38.7875 112.289 38.7875ZM143.359 28.0939C143.359 25.1038 143.359 22.1138 143.359 19.12C142.909 19.12 142.494 19.12 142.032 19.12C142.032 20.3943 142.032 21.6355 142.032 22.93C141.847 22.8039 141.723 22.7133 141.594 22.6314C139.65 21.4025 137.295 22.3298 136.873 24.5695C136.708 25.441 136.718 26.3913 136.873 27.2664C137.189 29.0539 138.666 29.9845 140.424 29.6454C141.161 29.5033 141.743 29.0979 142.258 28.4606C142.343 28.8709 142.411 29.1994 142.479 29.5264C142.782 29.5264 143.055 29.5264 143.359 29.5264C143.359 29.0605 143.359 28.6241 143.359 28.0939ZM109.605 28.5538C111.145 30.078 113.948 29.9349 115.601 29.1608C115.691 29.1185 115.784 28.9828 115.792 28.8838C115.817 28.5815 115.801 28.2759 115.801 27.9808C115.135 28.159 114.539 28.363 113.926 28.4746C111.668 28.8856 110.046 27.8251 109.635 25.6624C109.534 25.1285 109.501 24.5693 109.527 24.026C109.654 21.3795 111.447 19.9903 114.014 20.5392C114.484 20.6397 114.935 20.8279 115.44 20.9902C115.44 20.7767 115.413 20.5886 115.446 20.4112C115.531 19.9466 115.31 19.6902 114.889 19.5985C114.278 19.4652 113.661 19.2893 113.042 19.2661C110.829 19.1834 109.085 20.3288 108.476 22.2637C107.998 23.7844 108 25.3347 108.551 26.8325C108.772 27.4323 109.215 27.9509 109.605 28.5538ZM169.04 44.2651C169.058 44.4994 169.062 44.7355 169.095 44.9677C169.262 46.1462 169.714 47.1627 170.901 47.6314C172.187 48.1396 173.492 48.0168 174.771 47.5527C174.886 47.5109 175.017 47.3538 175.034 47.2351C175.073 46.963 175.046 46.6815 175.046 46.3528C174.85 46.4193 174.708 46.4893 174.559 46.514C173.85 46.6312 173.137 46.8404 172.43 46.8229C171.088 46.7896 170.378 45.9462 170.389 44.5277C172.045 44.5277 173.704 44.5277 175.455 44.5277C175.383 43.786 175.37 43.0954 175.238 42.4284C175.009 41.276 174.26 40.5747 173.094 40.4188C172.527 40.343 171.926 40.3719 171.361 40.4701C170.372 40.6421 169.663 41.2503 169.366 42.2001C169.168 42.8323 169.14 43.5169 169.04 44.2651ZM185.469 28.6052C185.265 28.6063 185.06 28.6162 184.856 28.6073C183.518 28.5488 182.727 27.6873 182.783 26.2908C184.439 26.2908 186.098 26.2908 187.805 26.2908C187.772 25.6668 187.783 25.0996 187.705 24.5449C187.506 23.1336 186.709 22.3521 185.323 22.1474C183.323 21.8518 181.886 22.8071 181.523 24.6984C181.35 25.6015 181.374 26.5108 181.612 27.4016C181.966 28.7198 182.881 29.5297 184.261 29.646C184.958 29.7047 185.677 29.6566 186.371 29.5546C187.419 29.4005 187.465 29.3 187.429 28.2723C187.427 28.2326 187.403 28.1937 187.401 28.1903C186.773 28.3305 186.164 28.4663 185.469 28.6052ZM159.004 25.9663C158.276 27.0368 158.401 28.4256 159.292 29.169C160.402 30.0953 162.011 29.8485 163.404 28.5131C163.484 28.8712 163.559 29.2087 163.631 29.5338C163.934 29.5338 164.196 29.5338 164.463 29.5338C164.463 27.6942 164.504 25.8758 164.445 24.0605C164.417 23.1703 163.877 22.5488 162.99 22.2927C161.774 21.9414 160.588 22.136 159.423 22.5358C159.327 22.5689 159.227 22.728 159.213 22.8388C159.182 23.0939 159.204 23.3553 159.204 23.5546C160.093 23.4174 160.923 23.2175 161.761 23.1778C162.92 23.1229 163.43 23.8428 163.135 25.0259C162.469 25.0259 161.792 25.0038 161.117 25.0316C160.322 25.0644 159.599 25.3 159.004 25.9663ZM120.899 23.5344C120.123 24.9315 120.101 26.3862 120.673 27.8355C121.197 29.1626 122.501 29.8321 124.102 29.7054C125.71 29.578 126.777 28.7713 127.101 27.2583C127.261 26.5105 127.274 25.7 127.184 24.9378C127.02 23.5604 126.253 22.5924 124.859 22.2353C123.247 21.8226 121.811 22.2937 120.899 23.5344ZM143.411 47.9367C145.24 47.8686 146.337 47.0819 146.74 45.5167C146.975 44.6058 146.974 43.6806 146.74 42.7702C146.493 41.8133 145.956 41.064 145.02 40.6569C144.182 40.2923 143.307 40.2738 142.427 40.4575C141.356 40.6809 140.571 41.31 140.256 42.3377C140.036 43.0555 139.939 43.8437 139.961 44.5956C140.02 46.6606 141.262 47.8489 143.411 47.9367ZM121.678 45.6C121.678 46.3277 121.678 47.0553 121.678 47.7761C122.142 47.7761 122.53 47.7761 122.919 47.7761C122.919 46.0309 122.969 44.3066 122.899 42.5872C122.859 41.6251 122.371 40.8186 121.381 40.5154C120.169 40.144 119.043 40.3419 118.101 41.2506C117.982 41.3657 117.883 41.5025 117.712 41.7031C117.634 41.2726 117.67 40.8752 117.488 40.658C117.339 40.4792 116.931 40.514 116.627 40.4518C116.627 42.9651 116.627 45.3587 116.627 47.7745C117.052 47.7745 117.452 47.7745 117.902 47.7745C117.902 47.5985 117.902 47.4462 117.902 47.294C117.902 45.9926 117.901 44.6913 117.903 43.3899C117.903 43.2494 117.892 43.1022 117.928 42.9695C118.17 42.08 119.29 41.3614 120.25 41.4688C121.198 41.5748 121.619 42.1142 121.674 43.2952C121.68 43.4204 121.678 43.546 121.678 43.6714C121.678 44.2829 121.678 44.8944 121.678 45.6ZM150.682 40.7354C150.33 41.0129 149.978 41.2904 149.601 41.5876C149.531 41.2312 149.461 40.8724 149.393 40.5302C149.076 40.5302 148.803 40.5302 148.544 40.5302C148.544 42.9723 148.544 45.3753 148.544 47.7783C148.974 47.7783 149.363 47.7783 149.801 47.7783C149.801 47.6059 149.801 47.4541 149.801 47.3023C149.801 46.0642 149.834 44.8249 149.789 43.5884C149.76 42.7788 150.157 42.2474 150.759 41.8285C151.381 41.3951 152.082 41.3056 152.775 41.6404C153.428 41.9563 153.538 42.588 153.571 43.2341C153.579 43.3905 153.577 43.5475 153.577 43.7042C153.577 44.9266 153.576 46.1491 153.578 47.3715C153.578 47.5059 153.595 47.6403 153.604 47.7629C154.043 47.7629 154.442 47.7629 154.849 47.7629C154.849 46.1143 154.91 44.4994 154.833 42.8912C154.744 41.0533 153.659 40.1876 151.821 40.3826C151.454 40.4215 151.102 40.5903 150.682 40.7354ZM178.395 41.3141C178.31 41.4215 178.225 41.5289 178.085 41.7044C177.989 41.2342 177.915 40.874 177.845 40.5306C177.528 40.5306 177.255 40.5306 177 40.5306C177 42.9726 177 45.3759 177 47.7619C177.442 47.7619 177.842 47.7619 178.262 47.7619C178.262 46.3465 178.294 44.9673 178.249 43.5905C178.224 42.8232 178.576 42.304 179.137 41.8828C179.761 41.4145 180.468 41.3023 181.188 41.6181C181.878 41.9209 181.989 42.57 182.032 43.2309C182.043 43.387 182.038 43.5441 182.038 43.7008C182.039 44.9074 182.038 46.114 182.04 47.3206C182.04 47.471 182.054 47.6213 182.063 47.7821C182.491 47.7821 182.88 47.7821 183.255 47.7821C183.255 45.983 183.334 44.1963 183.227 42.4207C183.158 41.2684 182.359 40.5474 181.31 40.3959C180.227 40.2393 179.241 40.4593 178.395 41.3141ZM129.195 28.5341C129.55 29.1614 130.081 29.5395 130.796 29.6576C132.088 29.8711 133.133 29.4262 133.98 28.3983C134.062 28.8164 134.132 29.1687 134.203 29.533C134.491 29.533 134.768 29.533 135.048 29.533C135.048 27.1052 135.048 24.7008 135.048 22.3086C134.614 22.3086 134.215 22.3086 133.797 22.3086C133.797 23.7078 133.797 25.0711 133.797 26.4344C133.797 27.3819 133.195 28.2249 132.293 28.5392C131.273 28.8945 130.389 28.4232 130.2 27.3655C130.107 26.8468 130.125 26.3057 130.12 25.7745C130.11 24.6195 130.117 23.4644 130.117 22.2977C129.666 22.2977 129.263 22.2977 128.863 22.2977C128.863 23.9964 128.845 25.6701 128.877 27.3428C128.884 27.7203 129.066 28.0944 129.195 28.5341ZM130.055 40.4919C129.227 40.4919 129.226 40.4917 128.949 41.2492C128.439 42.6454 127.93 44.042 127.419 45.4382C127.337 45.6615 127.252 45.8834 127.139 46.182C127.041 45.9363 126.974 45.7792 126.916 45.6191C126.334 44.0322 125.759 42.443 125.166 40.8606C125.112 40.716 124.955 40.5271 124.824 40.509C124.473 40.4601 124.109 40.4922 123.708 40.4922C123.76 40.6521 123.79 40.77 123.834 40.8824C124.696 43.0662 125.571 45.2447 126.409 47.4373C126.546 47.7962 126.751 47.8175 127.049 47.8016C127.363 47.7847 127.651 47.8711 127.822 47.4191C128.654 45.2245 129.539 43.0497 130.403 40.8671C130.447 40.7576 130.473 40.6411 130.517 40.4919C130.358 40.4919 130.248 40.4919 130.055 40.4919ZM176.762 29.4412C176.95 29.4796 177.137 29.5188 177.326 29.5562C177.777 29.646 177.98 29.4364 178.129 29.0169C178.453 28.1022 178.839 27.2095 179.196 26.3066C179.72 24.9861 180.241 23.6647 180.791 22.2724C180.469 22.2724 180.202 22.302 179.946 22.2655C179.553 22.2096 179.41 22.3854 179.288 22.7361C178.736 24.3181 178.151 25.8887 177.575 27.4626C177.524 27.6021 177.456 27.7353 177.373 27.9223C177.304 27.7445 177.257 27.629 177.214 27.512C176.619 25.8949 176.029 24.2765 175.427 22.6624C175.373 22.5192 175.258 22.3051 175.151 22.2925C174.768 22.2474 174.377 22.2748 173.931 22.2748C174.885 24.6864 175.811 27.0271 176.762 29.4412ZM185.567 45.5877C185.627 47.4324 186.619 48.1736 188.499 47.7655C188.499 47.4149 188.499 47.0618 188.499 46.6945C188.409 46.6945 188.346 46.6917 188.284 46.695C187.168 46.7539 186.872 46.4792 186.868 45.3676C186.865 44.3954 186.868 43.4232 186.867 42.451C186.867 42.1606 186.867 41.8702 186.867 41.5345C187.433 41.5345 187.93 41.5345 188.416 41.5345C188.416 41.1654 188.416 40.8437 188.416 40.4783C187.887 40.4783 187.39 40.4783 186.855 40.4783C186.855 39.7986 186.855 39.1625 186.855 38.5225C186.568 38.5225 186.324 38.5225 186.074 38.5225C185.964 38.9399 185.817 39.3274 185.769 39.7267C185.699 40.3002 185.433 40.634 184.85 40.7131C184.359 40.7796 184.19 41.0525 184.374 41.5635C184.745 41.5635 185.133 41.5635 185.566 41.5635C185.566 42.9018 185.566 44.1992 185.567 45.5877ZM167.998 26.0236C167.998 25.1367 167.998 24.2498 167.998 23.3191C168.554 23.3191 169.051 23.3191 169.556 23.3191C169.556 22.9514 169.556 22.629 169.556 22.2583C169.037 22.2583 168.54 22.2583 167.981 22.2583C167.981 21.5654 167.981 20.9192 167.981 20.283C167.687 20.283 167.457 20.283 167.217 20.283C167.116 20.669 166.976 21.0271 166.935 21.3961C166.864 22.0372 166.566 22.387 165.911 22.5166C165.373 22.6231 165.355 22.7397 165.55 23.3568C165.923 23.3568 166.309 23.3568 166.72 23.3568C166.72 24.7767 166.702 26.155 166.725 27.5327C166.753 29.2093 168.04 30.0654 169.641 29.4999C169.641 29.1594 169.641 28.8199 169.641 28.4506C169.509 28.4639 169.404 28.4759 169.298 28.4848C168.439 28.5573 168.064 28.2467 168.011 27.3874C167.985 26.9655 168.001 26.541 167.998 26.0236ZM98.8059 24.9884C98.7981 22.6673 98.7922 20.3462 98.7819 18.0252C98.7715 15.6884 98.7547 13.3517 98.7442 11.015C98.7339 8.72571 98.728 6.4364 98.7202 4.14709C98.6528 4.14822 98.5854 4.14935 98.518 4.15048C98.5825 22.0591 98.647 39.9676 98.7115 57.8762C98.743 57.876 98.7746 57.8759 98.8061 57.8757C98.8061 46.9446 98.8061 36.0135 98.8059 24.9884ZM117.419 21.3195C117.419 24.0564 117.419 26.7933 117.419 29.5348C117.872 29.5348 118.259 29.5348 118.657 29.5348C118.657 26.0449 118.657 22.5756 118.657 19.1157C117.983 19.1157 117.342 19.1157 116.562 19.1157C116.713 19.3899 116.773 19.6741 116.937 19.7606C117.351 19.9785 117.486 20.2725 117.423 20.7093C117.398 20.8783 117.419 21.0538 117.419 21.3195ZM135.594 47.786C135.983 47.786 136.372 47.786 136.791 47.786C136.799 47.6003 136.811 47.4477 136.811 47.2951C136.813 46.1197 136.811 44.9443 136.812 43.7689C136.814 42.5411 137.566 41.7509 138.806 41.6678C138.927 41.6597 139.047 41.6393 139.17 41.6243C139.17 41.2516 139.17 40.9107 139.17 40.5366C138.049 40.3291 137.257 40.7908 136.641 41.7862C136.561 41.3555 136.546 41.0175 136.432 40.7166C136.251 40.2392 135.85 40.5948 135.529 40.4939C135.529 42.9379 135.529 45.3316 135.594 47.786ZM172.752 26.0237C172.752 24.7905 172.752 23.5573 172.752 22.2979C172.063 22.2979 171.41 22.2979 170.766 22.2979C170.631 22.6605 170.749 22.897 171.076 23.031C171.401 23.1642 171.466 23.3997 171.463 23.7352C171.445 25.5035 171.455 27.2722 171.455 29.0407C171.455 29.2057 171.455 29.3706 171.455 29.524C171.921 29.524 172.321 29.524 172.752 29.524C172.752 28.3667 172.752 27.2423 172.752 26.0237ZM132.198 47.7796C132.599 47.7796 133 47.7796 133.385 47.7796C133.385 45.3226 133.385 42.92 133.385 40.5228C132.711 40.5228 132.074 40.5228 131.45 40.5228C131.324 40.8893 131.417 41.1345 131.756 41.2693C132.064 41.3919 132.129 41.6197 132.128 41.9372C132.119 43.8636 132.132 45.7901 132.198 47.7796ZM132.446 38.857C132.754 38.857 133.063 38.857 133.378 38.857C133.378 38.4391 133.378 38.0777 133.378 37.7075C132.848 37.7075 132.355 37.7075 131.86 37.7075C131.86 38.0999 131.86 38.4634 131.86 38.857C132.048 38.857 132.202 38.857 132.446 38.857ZM172.725 20.4476C172.725 20.1282 172.725 19.8089 172.725 19.4929C172.171 19.4929 171.68 19.4929 171.188 19.4929C171.188 19.8736 171.188 20.2241 171.188 20.6498C171.715 20.6079 172.213 20.5681 172.725 20.4476Z" fill="#2C2926"/>
<path d="M42.6345 29.6497C42.9896 28.4323 43.255 27.1798 43.7208 26.0058C44.4219 24.2385 45.5077 22.6814 46.8681 21.346C48.0198 20.2155 49.3338 19.2979 50.7838 18.5536C52.3862 17.7311 54.0951 17.2897 55.8411 16.9572C56.4048 16.8499 56.9946 16.8782 57.6591 16.8492C63.6804 16.8556 69.615 16.8574 75.5496 16.8577C75.7058 16.8577 75.862 16.841 76.0182 16.832C76.9316 16.9298 77.8566 16.9686 78.7551 17.1429C79.5697 17.3009 80.3733 17.5602 81.149 17.8591C82.0891 18.2214 83.027 18.6148 83.9049 19.103C84.5759 19.4761 85.1479 20.0235 85.7716 20.4831C87.1491 21.4983 88.1743 22.8298 89.061 24.2551C89.566 25.0669 89.8937 25.9879 90.3112 26.931C90.4098 27.2559 90.4983 27.5097 90.5869 27.7635C90.5869 27.7635 90.5832 27.7595 90.5883 27.799C90.7561 28.6862 90.9189 29.5338 91.0746 30.4232C91.0623 31.6193 91.0563 32.7736 91.0523 33.928C91.0514 34.1676 91.0575 34.4073 91.0604 34.6469C90.9711 35.7531 90.6188 36.7845 90.2221 37.8152C89.6761 39.2338 88.8981 40.525 87.9902 41.7177C87.3413 42.5703 86.5165 43.3056 85.6985 44.0109C85.0102 44.6042 84.264 45.1641 83.4625 45.5868C82.1559 46.2759 80.7899 46.8498 79.3252 47.1611C78.2561 47.3883 77.1873 47.5673 76.0042 47.5294C75.8393 47.5221 75.7608 47.515 75.6823 47.515C69.7828 47.5142 63.8834 47.5139 57.9839 47.5151C57.8751 47.5152 57.7663 47.5351 57.6575 47.5457C55.7533 47.5935 53.9209 47.196 52.1889 46.4648C50.9915 45.9594 49.8364 45.3159 48.7458 44.6072C46.73 43.2973 45.2823 41.4426 44.1632 39.354C43.6692 38.4319 43.3081 37.4225 43.0148 36.4158C42.7586 35.5362 42.6822 34.6049 42.5432 33.6248C42.5817 32.37 42.6033 31.1867 42.6249 30.0034C42.6249 30.0034 42.617 29.9696 42.6359 29.9334C42.6481 29.8147 42.6413 29.7322 42.6345 29.6497ZM75.9949 41.984C76.3298 41.959 76.6781 41.9842 76.9969 41.8994C77.8793 41.6648 78.8046 41.4961 79.614 41.1009C82.0071 39.9324 83.7068 38.0876 84.628 35.5749C85.3028 33.7344 85.3704 31.8388 84.9679 29.9453C84.6685 28.5368 84.0832 27.2254 83.1092 26.1283C82.7116 25.6806 82.245 25.2938 81.8435 24.8492C80.9226 23.8294 79.713 23.291 78.4509 22.8891C77.6328 22.6286 76.7586 22.5425 75.8404 22.3454C75.5583 22.3275 75.2762 22.2941 74.9941 22.2939C69.5638 22.2908 64.1336 22.2901 58.7033 22.2951C58.3915 22.2953 58.0798 22.3478 57.6871 22.3901C57.5038 22.4254 57.3219 22.4789 57.137 22.4933C54.5623 22.6928 52.4591 23.8686 50.8334 25.7825C48.9583 27.99 48.1957 30.5899 48.5714 33.4972C48.7581 34.9417 49.2482 36.2641 50.0182 37.4884C51.1991 39.366 52.8803 40.627 54.9405 41.4274C55.9431 41.8169 56.9773 41.9836 58.1027 42.0455C58.2907 42.0592 58.4787 42.0849 58.6667 42.085C64.1204 42.087 69.5741 42.0877 75.0278 42.0823C75.3236 42.082 75.6194 42.027 75.9949 41.984Z" fill="#B8332A"/>
<path d="M154.382 27.7208C153.024 25.7192 151.686 23.7449 150.282 21.6713C150.282 24.3454 150.282 26.9136 150.282 29.5188C149.813 29.5188 149.4 29.5188 148.958 29.5188C148.958 26.1759 148.958 22.8269 148.958 19.409C149.322 19.409 149.696 19.3792 150.061 19.4248C150.192 19.4412 150.324 19.623 150.415 19.7566C152.014 22.1047 153.607 24.4572 155.202 26.8079C155.293 26.9427 155.394 27.0712 155.569 27.3102C155.569 24.6049 155.569 22.0298 155.569 19.4312C156.02 19.4312 156.422 19.4312 156.858 19.4312C156.858 22.7874 156.858 26.1354 156.858 29.5552C156.508 29.5552 156.137 29.5738 155.769 29.5438C155.66 29.535 155.536 29.4079 155.463 29.3043C155.102 28.7912 154.755 28.2678 154.382 27.7208Z" fill="#FBFBFB"/>
<path d="M164.412 40.4151C164.964 40.4321 165.506 40.3663 165.987 40.5063C166.95 40.7864 167.409 41.5858 167.447 42.5069C167.518 44.2576 167.467 46.0131 167.467 47.7826C167.075 47.7826 166.684 47.7826 166.232 47.7826C166.232 47.6266 166.232 47.4764 166.232 47.3261C166.232 46.1028 166.233 44.8794 166.231 43.6561C166.23 43.4368 166.227 43.2163 166.205 42.9984C166.096 41.9215 165.593 41.4106 164.692 41.4514C163.67 41.4976 162.849 42.2829 162.846 43.2269C162.842 44.5757 162.845 45.9245 162.845 47.2733C162.845 47.428 162.845 47.5826 162.845 47.7678C162.417 47.7678 162.017 47.7678 161.56 47.7678C161.56 47.5901 161.56 47.4221 161.56 47.2542C161.557 45.8897 161.573 44.5249 161.544 43.161C161.52 42.0106 160.987 41.4316 160.043 41.4487C159.035 41.467 158.174 42.3167 158.169 43.3169C158.162 44.6343 158.167 45.9517 158.167 47.2692C158.167 47.4238 158.167 47.5784 158.167 47.7657C157.734 47.7657 157.336 47.7657 156.91 47.7657C156.91 45.3555 156.91 42.9496 156.91 40.5179C157.183 40.5179 157.445 40.5179 157.748 40.5179C157.82 40.8497 157.894 41.1946 157.985 41.622C158.622 40.8566 159.344 40.3616 160.33 40.3522C161.333 40.3427 162.095 40.7235 162.565 41.6836C163.052 41.0412 163.625 40.6007 164.412 40.4151Z" fill="#FBFBFB"/>
<path d="M112.242 38.7874C111.443 38.7874 110.691 38.7874 109.913 38.7874C109.913 39.8899 109.913 40.9482 109.913 42.0501C111.404 42.0501 112.893 42.0501 114.414 42.0501C114.414 42.4444 114.414 42.7962 114.414 43.1937C112.931 43.1937 111.444 43.1937 109.922 43.1937C109.922 44.3564 109.922 45.475 109.922 46.6413C111.599 46.6413 113.277 46.6413 114.974 46.6413C114.974 47.0419 114.974 47.3952 114.974 47.7735C112.837 47.7735 110.72 47.7735 108.58 47.7735C108.58 44.4017 108.58 41.0544 108.58 37.6772C110.661 37.6772 112.732 37.6772 114.835 37.6772C114.835 38.0305 114.835 38.3812 114.835 38.7874C113.98 38.7874 113.135 38.7874 112.242 38.7874Z" fill="#FCFBFB"/>
<path d="M143.359 28.1407C143.359 28.624 143.359 29.0604 143.359 29.5263C143.056 29.5263 142.782 29.5263 142.479 29.5263C142.411 29.1993 142.343 28.8708 142.258 28.4605C141.743 29.0978 141.161 29.5032 140.424 29.6453C138.666 29.9843 137.189 29.0538 136.873 27.2663C136.719 26.3912 136.708 25.4409 136.873 24.5694C137.296 22.3297 139.65 21.4024 141.594 22.6313C141.723 22.7132 141.847 22.8038 142.032 22.9299C142.032 21.6353 142.032 20.3942 142.032 19.1199C142.494 19.1199 142.909 19.1199 143.359 19.1199C143.359 22.1137 143.359 25.1037 143.359 28.1407ZM142.06 24.2921C141.673 23.4939 140.953 23.2272 140.144 23.1697C139.329 23.1118 138.684 23.4599 138.359 24.2173C137.879 25.3325 137.89 26.4823 138.359 27.5955C138.709 28.4265 139.416 28.7615 140.315 28.6326C140.905 28.548 141.399 28.2729 141.74 27.8C141.91 27.5646 142.033 27.2453 142.046 26.958C142.086 26.0988 142.06 25.2366 142.06 24.2921Z" fill="#F9F9F9"/>
<path d="M109.581 28.5299C109.215 27.9507 108.772 27.4321 108.551 26.8322C108 25.3345 107.998 23.7842 108.476 22.2635C109.085 20.3286 110.829 19.1832 113.042 19.2659C113.662 19.2891 114.278 19.465 114.889 19.5983C115.31 19.69 115.531 19.9464 115.446 20.411C115.413 20.5883 115.441 20.7765 115.441 20.99C114.936 20.8277 114.484 20.6395 114.014 20.539C111.447 19.9901 109.654 21.3793 109.527 24.0258C109.501 24.569 109.534 25.1283 109.636 25.6621C110.047 27.8249 111.668 28.8854 113.926 28.4743C114.539 28.3628 115.135 28.1588 115.801 27.9806C115.801 28.2757 115.817 28.5813 115.792 28.8835C115.784 28.9826 115.691 29.1183 115.601 29.1606C113.949 29.9347 111.145 30.0777 109.581 28.5299Z" fill="#FAFAF9"/>
<path d="M169.038 44.2215C169.14 43.5168 169.169 42.8322 169.366 42.2C169.663 41.2502 170.372 40.6421 171.362 40.47C171.927 40.3719 172.528 40.343 173.094 40.4187C174.26 40.5746 175.009 41.2759 175.238 42.4283C175.37 43.0953 175.383 43.7859 175.455 44.5276C173.704 44.5276 172.046 44.5276 170.389 44.5276C170.379 45.9461 171.089 46.7896 172.431 46.8228C173.137 46.8404 173.85 46.6311 174.559 46.5139C174.708 46.4892 174.85 46.4192 175.046 46.3527C175.046 46.6814 175.073 46.9629 175.034 47.2351C175.017 47.3537 174.886 47.5108 174.771 47.5526C173.493 48.0168 172.188 48.1396 170.901 47.6313C169.714 47.1626 169.263 46.1461 169.096 44.9677C169.063 44.7355 169.058 44.4993 169.038 44.2215ZM174.04 42.5982C173.762 41.668 173.012 41.2542 171.934 41.4363C170.965 41.6 170.371 42.3848 170.397 43.4848C171.631 43.4848 172.866 43.4848 174.146 43.4848C174.117 43.1951 174.09 42.9348 174.04 42.5982Z" fill="#FAFAFA"/>
<path d="M185.512 28.6034C186.164 28.466 186.773 28.3302 187.402 28.1901C187.403 28.1935 187.427 28.2324 187.429 28.2721C187.465 29.2998 187.419 29.4003 186.371 29.5544C185.677 29.6563 184.958 29.7045 184.261 29.6458C182.881 29.5295 181.966 28.7195 181.613 27.4014C181.374 26.5105 181.35 25.6012 181.523 24.6982C181.886 22.8068 183.323 21.8516 185.324 22.1471C186.709 22.3519 187.507 23.1333 187.705 24.5446C187.783 25.0994 187.772 25.6665 187.805 26.2906C186.099 26.2906 184.439 26.2906 182.783 26.2906C182.728 27.687 183.518 28.5486 184.856 28.607C185.06 28.616 185.265 28.6061 185.512 28.6034ZM186.404 24.2662C186.067 23.3805 185.371 23.0283 184.317 23.2106C183.338 23.3801 182.79 24.0959 182.763 25.2567C184.007 25.2567 185.25 25.2567 186.546 25.2567C186.501 24.9233 186.461 24.6326 186.404 24.2662Z" fill="#FBFBFA"/>
<path d="M159.026 25.9406C159.599 25.3 160.322 25.0644 161.117 25.0316C161.792 25.0038 162.47 25.0259 163.136 25.0259C163.43 23.8428 162.92 23.1229 161.761 23.1778C160.924 23.2175 160.094 23.4174 159.204 23.5546C159.204 23.3553 159.183 23.0939 159.214 22.8388C159.227 22.728 159.327 22.5689 159.423 22.5358C160.588 22.136 161.774 21.9413 162.991 22.2927C163.877 22.5488 164.417 23.1703 164.446 24.0605C164.504 25.8758 164.463 27.6942 164.463 29.5338C164.197 29.5338 163.934 29.5338 163.631 29.5338C163.559 29.2087 163.484 28.8712 163.405 28.5131C162.011 29.8485 160.402 30.0953 159.292 29.169C158.401 28.4256 158.276 27.0368 159.026 25.9406ZM161.41 25.9703C161.285 25.9824 161.159 25.985 161.036 26.008C160.122 26.1793 159.68 26.7928 159.853 27.6471C160.012 28.4371 160.703 28.8542 161.588 28.6109C162.639 28.3219 163.511 27.6614 163.174 25.967C162.621 25.967 162.06 25.967 161.41 25.9703Z" fill="#FBFBFA"/>
<path d="M120.918 23.5059C121.812 22.2937 123.247 21.8225 124.859 22.2353C126.253 22.5924 127.021 23.5604 127.184 24.9377C127.274 25.7 127.261 26.5105 127.101 27.2583C126.778 28.7713 125.711 29.578 124.102 29.7053C122.501 29.8321 121.197 29.1626 120.673 27.8355C120.101 26.3861 120.123 24.9314 120.918 23.5059ZM122.592 23.5032C122.341 23.8354 121.999 24.1332 121.856 24.5065C121.504 25.4257 121.523 26.3851 121.842 27.3184C122.144 28.2029 122.827 28.6466 123.8 28.6431C124.775 28.6396 125.518 28.207 125.733 27.3069C125.905 26.5929 125.979 25.8085 125.877 25.0862C125.636 23.3858 124.205 22.7064 122.592 23.5032Z" fill="#FAFAFA"/>
<path d="M143.369 47.9358C141.262 47.8489 140.02 46.6606 139.961 44.5956C139.939 43.8437 140.036 43.0554 140.256 42.3376C140.571 41.31 141.356 40.6808 142.427 40.4574C143.308 40.2737 144.182 40.2922 145.021 40.6569C145.956 41.0639 146.493 41.8132 146.74 42.7701C146.975 43.6805 146.975 44.6057 146.74 45.5167C146.338 47.0819 145.24 47.8686 143.369 47.9358ZM145.051 42.1402C144 40.9842 142.135 41.185 141.546 42.5525C141.093 43.6031 141.108 44.6987 141.551 45.755C141.885 46.5522 142.556 46.8776 143.405 46.8783C144.251 46.8791 144.944 46.5719 145.267 45.7697C145.75 44.5677 145.759 43.3583 145.051 42.1402Z" fill="#FAFAFA"/>
<path d="M121.678 45.5528C121.678 44.8942 121.678 44.2827 121.678 43.6712C121.678 43.5458 121.68 43.4202 121.674 43.295C121.619 42.114 121.198 41.5746 120.25 41.4686C119.29 41.3612 118.17 42.0798 117.928 42.9693C117.892 43.102 117.903 43.2492 117.903 43.3897C117.901 44.6911 117.902 45.9924 117.902 47.2938C117.902 47.446 117.902 47.5983 117.902 47.7743C117.452 47.7743 117.052 47.7743 116.627 47.7743C116.627 45.3585 116.627 42.9649 116.627 40.4516C116.931 40.5138 117.339 40.479 117.488 40.6578C117.67 40.875 117.634 41.2724 117.712 41.7029C117.883 41.5023 117.982 41.3655 118.101 41.2504C119.043 40.3417 120.169 40.1438 121.381 40.5152C122.371 40.8184 122.859 41.6249 122.899 42.587C122.969 44.3064 122.919 46.0307 122.919 47.7759C122.53 47.7759 122.142 47.7759 121.678 47.7759C121.678 47.0551 121.678 46.3275 121.678 45.5528Z" fill="#FAFAFA"/>
<path d="M150.712 40.7171C151.102 40.5901 151.455 40.4213 151.821 40.3824C153.659 40.1875 154.744 41.0531 154.833 42.891C154.91 44.4993 154.849 46.1141 154.849 47.7628C154.442 47.7628 154.043 47.7628 153.604 47.7628C153.596 47.6401 153.578 47.5058 153.578 47.3713C153.576 46.1489 153.577 44.9264 153.577 43.704C153.577 43.5473 153.58 43.3903 153.571 43.234C153.538 42.5878 153.428 41.9561 152.775 41.6402C152.082 41.3054 151.382 41.3949 150.759 41.8284C150.157 42.2472 149.76 42.7786 149.789 43.5882C149.834 44.8248 149.801 46.064 149.801 47.3022C149.801 47.4539 149.801 47.6057 149.801 47.7782C149.363 47.7782 148.974 47.7782 148.544 47.7782C148.544 45.3751 148.544 42.9721 148.544 40.53C148.803 40.53 149.076 40.53 149.393 40.53C149.461 40.8722 149.531 41.2311 149.601 41.5874C149.978 41.2903 150.33 41.0127 150.712 40.7171Z" fill="#F8F8F7"/>
<path d="M178.42 41.2901C179.241 40.4592 180.227 40.2392 181.31 40.3958C182.359 40.5473 183.158 41.2683 183.227 42.4207C183.334 44.1963 183.255 45.9829 183.255 47.782C182.88 47.782 182.491 47.782 182.063 47.782C182.054 47.6212 182.04 47.4709 182.04 47.3205C182.038 46.1139 182.039 44.9073 182.038 43.7007C182.038 43.5441 182.043 43.3869 182.032 43.2308C181.989 42.5699 181.878 41.9208 181.188 41.618C180.468 41.3022 179.761 41.4144 179.137 41.8827C178.577 42.3039 178.224 42.8231 178.249 43.5904C178.294 44.9672 178.262 46.3464 178.262 47.7618C177.842 47.7618 177.442 47.7618 177 47.7618C177 45.3758 177 42.9725 177 40.5305C177.255 40.5305 177.528 40.5305 177.845 40.5305C177.915 40.8739 177.989 41.2341 178.085 41.7043C178.225 41.5288 178.31 41.4214 178.42 41.2901Z" fill="#FAFAFA"/>
<path d="M129.182 28.5019C129.066 28.0942 128.884 27.7201 128.877 27.3427C128.845 25.6699 128.863 23.9962 128.863 22.2976C129.263 22.2976 129.666 22.2976 130.117 22.2976C130.117 23.4642 130.11 24.6194 130.12 25.7744C130.125 26.3056 130.107 26.8466 130.2 27.3654C130.389 28.4231 131.273 28.8944 132.293 28.5391C133.195 28.2248 133.797 27.3818 133.797 26.4342C133.797 25.071 133.797 23.7077 133.797 22.3085C134.215 22.3085 134.614 22.3085 135.048 22.3085C135.048 24.7007 135.048 27.1051 135.048 29.5329C134.768 29.5329 134.491 29.5329 134.203 29.5329C134.132 29.1686 134.062 28.8162 133.98 28.3981C133.133 29.426 132.089 29.871 130.796 29.6575C130.081 29.5394 129.55 29.1613 129.182 28.5019Z" fill="#FBFBFB"/>
<path d="M130.097 40.4917C130.249 40.4917 130.358 40.4917 130.517 40.4917C130.473 40.6409 130.447 40.7574 130.403 40.867C129.539 43.0496 128.654 45.2244 127.822 47.419C127.651 47.8709 127.364 47.7845 127.049 47.8014C126.751 47.8174 126.546 47.7961 126.409 47.4372C125.571 45.2446 124.696 43.0661 123.834 40.8823C123.79 40.7698 123.76 40.652 123.708 40.4921C124.109 40.4921 124.473 40.4599 124.825 40.5088C124.955 40.527 125.112 40.7158 125.166 40.8604C125.759 42.4428 126.334 44.032 126.916 45.6189C126.974 45.7791 127.041 45.9361 127.139 46.1819C127.252 45.8832 127.337 45.6614 127.419 45.438C127.93 44.0419 128.439 42.6453 128.95 41.249C129.226 40.4916 129.227 40.4917 130.097 40.4917Z" fill="#F9F9F9"/>
<path d="M176.75 29.4043C175.811 27.027 174.885 24.6863 173.931 22.2747C174.377 22.2747 174.768 22.2472 175.151 22.2923C175.258 22.3049 175.373 22.5191 175.427 22.6623C176.029 24.2764 176.62 25.8948 177.214 27.5118C177.257 27.6288 177.304 27.7443 177.373 27.9222C177.456 27.7351 177.525 27.602 177.576 27.4625C178.151 25.8886 178.736 24.318 179.288 22.7359C179.41 22.3853 179.553 22.2095 179.946 22.2653C180.203 22.3019 180.469 22.2722 180.791 22.2722C180.241 23.6645 179.72 24.986 179.197 26.3065C178.839 27.2093 178.453 28.1021 178.129 29.0167C177.981 29.4362 177.777 29.6459 177.326 29.5561C177.138 29.5186 176.95 29.4795 176.75 29.4043Z" fill="#FAFAFA"/>
<path d="M185.566 45.5422C185.566 44.1992 185.566 42.9018 185.566 41.5635C185.133 41.5635 184.745 41.5635 184.374 41.5635C184.19 41.0525 184.359 40.7796 184.85 40.7131C185.434 40.634 185.699 40.3002 185.769 39.7267C185.817 39.3274 185.965 38.9399 186.074 38.5225C186.324 38.5225 186.568 38.5225 186.855 38.5225C186.855 39.1625 186.855 39.7986 186.855 40.4783C187.39 40.4783 187.887 40.4783 188.416 40.4783C188.416 40.8437 188.416 41.1654 188.416 41.5345C187.93 41.5345 187.434 41.5345 186.868 41.5345C186.868 41.8702 186.868 42.1606 186.868 42.451C186.868 43.4232 186.865 44.3954 186.868 45.3676C186.872 46.4792 187.168 46.7539 188.284 46.695C188.346 46.6917 188.409 46.6945 188.499 46.6945C188.499 47.0618 188.499 47.4149 188.499 47.7655C186.619 48.1736 185.627 47.4324 185.566 45.5422Z" fill="#F8F7F7"/>
<path d="M167.998 26.0707C168.001 26.541 167.985 26.9655 168.011 27.3873C168.064 28.2467 168.439 28.5573 169.298 28.4848C169.404 28.4759 169.509 28.4639 169.641 28.4506C169.641 28.8199 169.641 29.1594 169.641 29.4998C168.04 30.0654 166.753 29.2093 166.725 27.5326C166.702 26.155 166.721 24.7767 166.721 23.3568C166.309 23.3568 165.923 23.3568 165.55 23.3568C165.356 22.7397 165.374 22.623 165.912 22.5165C166.566 22.3869 166.864 22.0372 166.935 21.3961C166.976 21.0271 167.116 20.669 167.218 20.283C167.457 20.283 167.687 20.283 167.982 20.283C167.982 20.9192 167.982 21.5654 167.982 22.2583C168.54 22.2583 169.037 22.2583 169.556 22.2583C169.556 22.629 169.556 22.9514 169.556 23.3191C169.052 23.3191 168.555 23.3191 167.998 23.3191C167.998 24.2498 167.998 25.1367 167.998 26.0707Z" fill="#FCFBFB"/>
<path d="M98.8061 25.0353C98.8062 36.0134 98.8062 46.9445 98.8062 57.8756C98.7747 57.8758 98.7431 57.8759 98.7116 57.8761C98.6471 39.9675 98.5826 22.0589 98.5181 4.15036C98.5855 4.14923 98.6529 4.1481 98.7203 4.14697C98.7281 6.43628 98.734 8.72559 98.7443 11.0149C98.7548 13.3516 98.7716 15.6883 98.782 18.0251C98.7923 20.3461 98.7982 22.6672 98.8061 25.0353Z" fill="#E3E3E3"/>
<path d="M117.419 21.2727C117.419 21.0535 117.398 20.878 117.423 20.7091C117.486 20.2722 117.351 19.9783 116.937 19.7604C116.773 19.6739 116.713 19.3897 116.562 19.1155C117.342 19.1155 117.983 19.1155 118.657 19.1155C118.657 22.5754 118.657 26.0447 118.657 29.5346C118.259 29.5346 117.872 29.5346 117.419 29.5346C117.419 26.7931 117.419 24.0562 117.419 21.2727Z" fill="white"/>
<path d="M135.562 47.7555C135.53 45.3315 135.53 42.9378 135.53 40.4938C135.85 40.5947 136.251 40.2391 136.433 40.7165C136.547 41.0174 136.562 41.3554 136.641 41.7861C137.257 40.7907 138.049 40.329 139.17 40.5365C139.17 40.9106 139.17 41.2515 139.17 41.6242C139.047 41.6392 138.927 41.6596 138.806 41.6677C137.566 41.7508 136.814 42.541 136.813 43.7688C136.811 44.9442 136.813 46.1196 136.811 47.295C136.811 47.4476 136.799 47.6002 136.791 47.7859C136.372 47.7859 135.983 47.7859 135.562 47.7555Z" fill="#F8F8F7"/>
<path d="M172.753 26.0707C172.753 27.2423 172.753 28.3667 172.753 29.524C172.321 29.524 171.921 29.524 171.455 29.524C171.455 29.3706 171.455 29.2057 171.455 29.0407C171.455 27.2721 171.445 25.5035 171.463 23.7352C171.467 23.3997 171.401 23.1642 171.076 23.031C170.749 22.897 170.631 22.6605 170.766 22.2979C171.41 22.2979 172.063 22.2979 172.753 22.2979C172.753 23.5573 172.753 24.7905 172.753 26.0707Z" fill="#F8F7F7"/>
<path d="M132.168 47.748C132.132 45.79 132.119 43.8635 132.128 41.9371C132.129 41.6196 132.064 41.3919 131.756 41.2693C131.417 41.1344 131.324 40.8893 131.45 40.5227C132.074 40.5227 132.711 40.5227 133.385 40.5227C133.385 42.9199 133.385 45.3226 133.385 47.7796C133 47.7796 132.599 47.7796 132.168 47.748Z" fill="#F7F7F7"/>
<path d="M132.401 38.857C132.202 38.857 132.048 38.857 131.86 38.857C131.86 38.4634 131.86 38.0999 131.86 37.7075C132.355 37.7075 132.849 37.7075 133.378 37.7075C133.378 38.0777 133.378 38.4391 133.378 38.857C133.063 38.857 132.754 38.857 132.401 38.857Z" fill="#EFEEEE"/>
<path d="M172.718 20.4878C172.213 20.5679 171.715 20.6077 171.188 20.6496C171.188 20.2238 171.188 19.8734 171.188 19.4927C171.68 19.4927 172.171 19.4927 172.725 19.4927C172.725 19.8087 172.725 20.128 172.718 20.4878Z" fill="#FCFBFB"/>
<path d="M57.6843 47.5759C57.7664 47.5352 57.8752 47.5153 57.984 47.5152C63.8835 47.514 69.783 47.5143 75.6824 47.5151C75.7609 47.5151 75.8394 47.5222 75.961 47.5349C75.8706 47.5705 75.737 47.6204 75.6035 47.6205C69.7018 47.6242 63.8001 47.6237 57.8985 47.6228C57.836 47.6228 57.7735 47.6119 57.6843 47.5759Z" fill="#00FDFF"/>
<path d="M75.9941 16.7992C75.8621 16.8409 75.7059 16.8577 75.5497 16.8577C69.6151 16.8574 63.6805 16.8556 57.7024 16.8431C57.8069 16.8061 57.955 16.7573 58.1031 16.7573C64.0587 16.7576 70.0144 16.7623 75.9941 16.7992Z" fill="#00FDFF"/>
<path d="M91.0913 34.6213C91.0576 34.4073 91.0515 34.1677 91.0523 33.928C91.0564 32.7737 91.0623 31.6194 91.0857 30.4213C91.1037 30.3775 91.1262 30.3782 91.1262 30.3782C91.1354 31.5516 91.1465 32.725 91.1521 33.8984C91.1532 34.1307 91.1327 34.3632 91.0913 34.6213Z" fill="#CA7071"/>
<path d="M91.1284 30.3377C91.1262 30.3782 91.1037 30.3775 91.0926 30.3795C90.9189 29.5339 90.7562 28.6863 90.5911 27.7996C90.8762 28.5834 91.1653 29.4061 91.1284 30.3377Z" fill="#DAAFAE"/>
<path d="M42.5957 30.0305C42.6035 31.1866 42.5819 32.3699 42.5424 33.5821C42.4947 33.545 42.4368 33.4779 42.439 33.4129C42.4771 32.2943 42.5225 31.1761 42.5957 30.0305Z" fill="#CA7071"/>
<path d="M90.5774 27.7271C90.4985 27.5097 90.4099 27.2559 90.3157 26.9678C90.3959 27.1858 90.4818 27.4383 90.5774 27.7271Z" fill="#DAAFAE"/>
<path d="M42.6224 29.6755C42.6413 29.7321 42.6481 29.8146 42.6339 29.916C42.6119 29.8572 42.6111 29.7793 42.6224 29.6755Z" fill="#CA7071"/>
<path d="M58.0451 41.9923C56.9773 41.9836 55.9431 41.817 54.9404 41.4274C52.8803 40.6271 51.1991 39.366 50.0182 37.4884C49.2482 36.2641 48.7581 34.9417 48.5714 33.4972C48.1956 30.5899 48.9583 27.99 50.8334 25.7825C52.4591 23.8686 54.5623 22.6928 57.137 22.4933C57.3219 22.4789 57.5038 22.4254 57.7715 22.3839C63.8738 22.3778 69.8917 22.378 75.9095 22.3782C76.7586 22.5425 77.6328 22.6287 78.4509 22.8891C79.713 23.291 80.9226 23.8294 81.8435 24.8492C82.245 25.2938 82.7116 25.6806 83.1092 26.1284C84.0832 27.2254 84.6685 28.5368 84.9679 29.9453C85.3704 31.8389 85.3027 33.7344 84.628 35.5749C83.7068 38.0876 82.0071 39.9324 79.614 41.1009C78.8046 41.4961 77.8793 41.6648 76.9969 41.8994C76.6781 41.9842 76.3297 41.959 75.9102 41.9904C72.0425 41.9898 68.2594 41.9797 64.4762 41.9773C62.3325 41.9759 60.1888 41.9869 58.0451 41.9923Z" fill="#2C2926"/>
<path d="M75.875 22.3619C69.8917 22.3781 63.8739 22.3779 57.812 22.3769C58.0798 22.3479 58.3915 22.2954 58.7033 22.2951C64.1336 22.2902 69.5638 22.2908 74.9941 22.294C75.2762 22.2941 75.5583 22.3275 75.875 22.3619Z" fill="#DAAFAE"/>
<path d="M58.074 42.0188C60.1889 41.9868 62.3326 41.9758 64.4763 41.9772C68.2594 41.9797 72.0425 41.9897 75.8705 41.997C75.6195 42.0269 75.3237 42.082 75.0278 42.0823C69.5741 42.0876 64.1204 42.0869 58.6667 42.0849C58.4787 42.0849 58.2907 42.0591 58.074 42.0188Z" fill="#DAAFAE"/>
<path d="M142.06 24.3339C142.06 25.2367 142.085 26.0988 142.046 26.9581C142.033 27.2454 141.91 27.5647 141.74 27.8001C141.399 28.2729 140.905 28.5481 140.315 28.6327C139.416 28.7616 138.709 28.4265 138.359 27.5955C137.89 26.4824 137.879 25.3325 138.358 24.2173C138.684 23.46 139.329 23.1119 140.144 23.1698C140.953 23.2272 141.672 23.4939 142.06 24.3339Z" fill="#2E2B28"/>
<path d="M174.051 42.6362C174.09 42.9346 174.117 43.195 174.146 43.4846C172.866 43.4846 171.631 43.4846 170.397 43.4846C170.371 42.3847 170.965 41.5999 171.934 41.4362C173.012 41.2541 173.762 41.6678 174.051 42.6362Z" fill="#2E2B28"/>
<path d="M186.412 24.3042C186.461 24.6327 186.5 24.9234 186.546 25.2569C185.25 25.2569 184.007 25.2569 182.763 25.2569C182.79 24.0961 183.338 23.3803 184.317 23.2107C185.371 23.0285 186.067 23.3807 186.412 24.3042Z" fill="#33302D"/>
<path d="M161.455 25.9684C162.06 25.9668 162.621 25.9668 163.174 25.9668C163.511 27.6612 162.639 28.3217 161.588 28.6107C160.703 28.854 160.012 28.4369 159.853 27.6469C159.68 26.7926 160.121 26.1791 161.036 26.0078C161.159 25.9848 161.285 25.9822 161.455 25.9684Z" fill="#2E2B29"/>
<path d="M122.621 23.4821C124.205 22.7062 125.636 23.3856 125.877 25.0861C125.979 25.8084 125.905 26.5927 125.733 27.3068C125.517 28.2069 124.775 28.6395 123.8 28.643C122.827 28.6465 122.144 28.2027 121.842 27.3182C121.523 26.3849 121.504 25.4256 121.856 24.5063C121.999 24.133 122.341 23.8352 122.621 23.4821Z" fill="#2E2B29"/>
<path d="M145.07 42.169C145.759 43.3583 145.75 44.5677 145.267 45.7696C144.944 46.5719 144.251 46.8791 143.405 46.8783C142.556 46.8775 141.885 46.5522 141.551 45.7549C141.108 44.6987 141.093 43.603 141.546 42.5524C142.135 41.185 144 40.9842 145.07 42.169Z" fill="#2E2B28"/>
</g>
<defs>
<clipPath id="clip0_2002_91">
<rect width="167.619" height="64" fill="white" transform="translate(36)"/>
</clipPath>
</defs>
</svg>
